<?xml version="1.0" encoding="UTF-8" standalone="no"?>
<!-- Created with Inkscape (http://www.inkscape.org/) -->

<svg
   width="210mm"
   height="297mm"
   viewBox="0 0 210 297"
   version="1.1"
   id="svg5"
   inkscape:version="1.2.2 (b0a8486541, 2022-12-01)"
   sodipodi:docname="egg.svg"
   xmlns:inkscape="http://www.inkscape.org/namespaces/inkscape"
   xmlns:sodipodi="http://sodipodi.sourceforge.net/DTD/sodipodi-0.dtd"
   xmlns="http://www.w3.org/2000/svg"
   xmlns:svg="http://www.w3.org/2000/svg">
  <sodipodi:namedview
     id="namedview7"
     pagecolor="#ffffff"
     bordercolor="#666666"
     borderopacity="1.0"
     inkscape:showpageshadow="2"
     inkscape:pageopacity="0.0"
     inkscape:pagecheckerboard="0"
     inkscape:deskcolor="#d1d1d1"
     inkscape:document-units="mm"
     showgrid="false"
     inkscape:zoom="1.1893044"
     inkscape:cx="577.64858"
     inkscape:cy="596.5672"
     inkscape:window-width="2560"
     inkscape:window-height="1440"
     inkscape:window-x="0"
     inkscape:window-y="0"
     inkscape:window-maximized="1"
     inkscape:current-layer="layer1" />
  <defs
     id="defs2" />
  <g
     inkscape:label="Layer 1"
     inkscape:groupmode="layer"
     id="layer1">
    <g
       id="g2739">
      <path
         style="fill:#fefefe;stroke:#696969;stroke-width:7.86500018;stop-color:#000000;stroke-dasharray:none;fill-opacity:1;stroke-opacity:1"
         d="m 115.76123,98.374858 c -0.124,-0.225222 -0.1044,-0.556208 -0.31462,-0.704205 -0.46852,-0.329832 -1.05084,-0.461542 -1.59522,-0.640297 -1.98712,-0.652507 -3.93281,-1.502854 -5.99496,-1.852073 -5.64404,-0.955799 -11.070536,-0.400542 -16.741152,-0.581308 -15.040877,-0.479462 -5.000037,-1.287168 -19.360107,0.612032 -1.952043,0.25817 -2.202103,0.02837 -3.570184,1.018826 -0.897409,0.649697 -0.697751,0.962326 -1.273223,2.053624 -1.668367,3.163813 -0.796298,0.421979 -1.437904,4.382533 -0.137872,0.85108 -0.515025,1.68316 -0.467011,2.54399 0.229391,4.11284 1.798418,6.54603 2.625098,10.65402 0.17772,0.88314 0,1.80168 0,2.70253 v 1.96759 c 0,1.05824 0.104362,2.15283 -0.314619,3.16954 -0.883057,2.14284 -2.946429,5.06718 -4.206795,6.76061 -0.66616,0.89506 -1.511279,1.65157 -2.14334,2.57103 -0.833146,1.21197 -1.429887,2.57363 -2.23797,3.80246 -0.334603,0.50882 -0.848947,0.88364 -1.179819,1.39489 -1.268968,1.96075 -0.798087,2.08392 -2.112616,3.94256 -0.351817,0.49745 -1.003464,0.78637 -1.230209,1.35188 -0.314283,0.78384 -0.273627,1.67001 -0.319535,2.51326 -0.216681,3.98029 0.207198,3.76532 0.501425,8.29192 0.06008,0.92429 -0.06913,1.85507 0,2.77873 0.109974,1.46933 0.987139,6.27065 1.257244,7.30136 0.583796,2.22775 1.459823,4.373 2.024129,6.60576 0.241374,0.95504 0.257268,1.95326 0.3859,2.92989 0.290859,1.3613 0.515025,2.73858 0.872575,4.0839 1.589373,5.98016 0.946835,1.76813 2.192499,7.54224 1.149183,5.32688 -0.89402,0.25792 2.518177,8.56722 0.841287,2.04867 1.498325,4.23531 2.806988,6.02199 2.734355,3.73314 5.6563,7.42372 9.211199,10.3861 10.318311,8.5985 21.687308,12.51251 34.49499,16.32207 6.33511,1.88435 12.83364,3.20679 19.33675,4.38746 7.71744,2.83759 15.94997,1.76442 23.86923,3.03435 5.15737,0.82704 2.19925,1.2113 7.1502,0.90699 1.27323,-0.0783 2.67072,0.14847 3.80123,-0.44244 1.69253,-0.88466 2.94713,-2.43872 4.29651,-3.79017 4.0628,-4.069 5.30266,-5.87406 8.31651,-10.75971 1.82115,-2.9522 3.80854,-5.71683 4.0249,-9.29231 0.0831,-1.37247 0.0212,-2.81533 -0.47561,-4.09742 -0.56186,-1.44996 -1.75998,-2.56446 -2.61035,-3.86636 -2.45507,-2.35808 -3.43749,-5.61156 -5.21087,-8.38287 -0.35362,-0.5526 -0.8568,-1.00692 -1.16631,-1.58538 -0.3157,-0.59007 -0.77054,-3.14089 -0.80129,-3.48785 -0.0699,-0.78878 0.11003,-1.59142 0,-2.37561 -0.18825,-1.34169 -0.75655,-2.61765 -0.88978,-3.96592 -0.45203,-4.57461 0.39104,-8.13882 1.84961,-12.42252 0.75061,-2.20445 1.83718,-4.29569 2.45182,-6.54185 0.36684,-1.34061 0.34209,-2.75908 0.47192,-4.14289 1.01856,-10.85626 0.60299,-3.26695 0.11184,-11.96534 -0.0652,-1.15382 0.0631,-2.31303 0,-3.46695 -0.0534,-0.97638 -0.23555,-1.94145 -0.34903,-2.91268 -0.14829,-1.26921 -0.27844,-2.54056 -0.43629,-3.80861 -0.14655,-1.17733 -0.18265,-2.3778 -0.47684,-3.52717 -1.15851,-4.52619 -2.59132,-7.79684 -5.03758,-11.82032 -1.38955,-2.28545 -2.49269,-3.03798 -4.44522,-4.66029 -0.61395,-0.51011 -1.22761,-1.02104 -1.85822,-1.51041 -0.3649,-0.28318 -0.77898,-0.50251 -1.12697,-0.80621 -0.53668,-0.46838 -1.01268,-1.00203 -1.51902,-1.50304 -1.22939,-0.9074 -2.50663,-1.75331 -3.68817,-2.72219 -1.30475,-1.06993 -2.43895,-2.33972 -3.7619,-3.38707 -0.79022,-0.6256 -1.69975,-1.08367 -2.55628,-1.61488 -2.31415,-1.4352 -4.88495,-2.32877 -7.43409,-3.25065 -0.6853,-0.24783 -3.49973,-1.3008 -4.19082,-1.49812 -3.84264,-1.09717 -0.24078,-0.0309 -2.17775,-0.31462 -0.52577,-0.077 -1.03866,-0.22643 -1.56204,-0.31831 -2.64712,-0.46469 -1.80672,-0.38221 -4.01999,-0.38221 -0.25422,0 -0.63845,-0.0638 -0.88486,0 -1.16157,0.30081 -0.66361,0.31954 -1.56449,0.31954 -0.0676,0 -0.13865,0.0213 -0.20278,0 -2.4864,-0.82793 -1.62992,-0.8221 -4.14658,-1.088881 -0.31286,-0.03317 -0.62923,0 -0.94385,0 -0.10488,0 -0.23841,0.07204 -0.31462,0 -0.072,-0.0681 0.0826,-0.242526 0,-0.297413 -0.12418,-0.08256 -0.29823,0 -0.44735,0 h -0.27406 -1.55466 c -0.10487,0 -0.22082,-0.0469 -0.31462,0 -0.13265,0.06633 -0.18196,0.24829 -0.31462,0.314618 -0.0938,0.0469 -0.23493,-0.06817 -0.31462,0 -0.0682,0.05832 0.0548,0.198116 0,0.269146 -0.0423,0.0548 -0.13846,0 -0.20769,0 -1.24287,-0.612176 -2.70514,-1.561007 -2.79224,-1.718112 z"
         id="path299"
         sodipodi:nodetypes="csssssssssssssssssssssssscsssssscssssssscsssssssscsssssssscsssssssscscssscscssssscc" />
      <ellipse
         style="fill:#ffcc00;stroke:#e3a700;stroke-width:6.265;stop-color:#000000;stroke-dasharray:none;stroke-opacity:1"
         id="path407"
         cx="114.92795"
         cy="157.33038"
         rx="31.000038"
         ry="29.67985" />
    </g>
  </g>
</svg>
