<?xml version="1.0" encoding="UTF-8" standalone="no"?>
<!-- Created with Inkscape (http://www.inkscape.org/) -->

<svg
   width="306.55777mm"
   height="201.18387mm"
   viewBox="0 0 306.55776 201.18387"
   version="1.1"
   id="svg5"
   inkscape:version="1.2.2 (b0a8486541, 2022-12-01)"
   sodipodi:docname="click-to-start.svg"
   inkscape:export-filename="title-text.png"
   inkscape:export-xdpi="192"
   inkscape:export-ydpi="192"
   xmlns:inkscape="http://www.inkscape.org/namespaces/inkscape"
   xmlns:sodipodi="http://sodipodi.sourceforge.net/DTD/sodipodi-0.dtd"
   xmlns="http://www.w3.org/2000/svg"
   xmlns:svg="http://www.w3.org/2000/svg">
  <sodipodi:namedview
     id="namedview7"
     pagecolor="#ffffff"
     bordercolor="#666666"
     borderopacity="1.0"
     inkscape:showpageshadow="2"
     inkscape:pageopacity="0.0"
     inkscape:pagecheckerboard="0"
     inkscape:deskcolor="#d1d1d1"
     inkscape:document-units="mm"
     showgrid="false"
     inkscape:zoom="0.84096521"
     inkscape:cx="610.01334"
     inkscape:cy="576.12371"
     inkscape:window-width="2560"
     inkscape:window-height="1440"
     inkscape:window-x="0"
     inkscape:window-y="0"
     inkscape:window-maximized="1"
     inkscape:current-layer="layer1" />
  <defs
     id="defs2" />
  <g
     inkscape:label="Layer 1"
     inkscape:groupmode="layer"
     id="layer1"
     transform="translate(56.658356,-28.864744)"
     style="display:inline">
    <rect
       style="fill:#808080;stroke:none;stroke-width:7;stop-color:#000000"
       id="rect401"
       width="306.55777"
       height="201.18387"
       x="-56.658356"
       y="28.864744"
       rx="3.8"
       ry="3.8" />
    <g
       id="g510"
       transform="translate(-7.8175392,-2.1333466)"
       style="display:none">
      <rect
         style="fill:#000000;stroke:none;stroke-width:6.00001;stroke-dasharray:none;stop-color:#000000"
         id="rect3100"
         width="162.05441"
         height="28.868389"
         x="23.410862"
         y="117.15583"
         rx="3.8"
         ry="3.8" />
      <text
         xml:space="preserve"
         style="font-style:normal;font-variant:normal;font-weight:normal;font-stretch:normal;font-size:22.5778px;line-height:1.25;font-family:Sigmar;-inkscape-font-specification:'Sigmar, Normal';font-variant-ligatures:normal;font-variant-caps:normal;font-variant-numeric:normal;font-variant-east-asian:normal;fill:#ffffff;fill-opacity:1;stroke:none;stroke-width:0.264583"
         x="28.269609"
         y="140.16508"
         id="text236"><tspan
           sodipodi:role="line"
           id="tspan234"
           style="font-style:normal;font-variant:normal;font-weight:normal;font-stretch:normal;font-size:22.5778px;font-family:Sigmar;-inkscape-font-specification:'Sigmar, Normal';font-variant-ligatures:normal;font-variant-caps:normal;font-variant-numeric:normal;font-variant-east-asian:normal;fill:#ffffff;stroke-width:0.264583"
           x="28.269609"
           y="140.16508">Click to start</tspan></text>
    </g>
    <g
       id="g352"
       transform="translate(-7.8175392,-2.1333466)"
       style="display:inline">
      <path
         id="rect346"
         style="fill:#000000;stroke:none;stroke-width:6.00001;stroke-dasharray:none;stop-color:#000000"
         d="M 27.210872 117.15562 C 25.105674 117.15562 23.411104 118.85071 23.411104 120.95591 L 23.411104 142.22438 C 23.411104 144.32957 25.105674 146.02414 27.210872 146.02414 L 181.66553 146.02414 C 183.77072 146.02414 185.46529 144.32957 185.46529 142.22438 L 185.46529 120.95591 C 185.46529 118.85071 183.77072 117.15562 181.66553 117.15562 L 27.210872 117.15562 z M 53.556551 120.72543 L 53.782377 120.72543 C 53.827532 120.72543 53.857758 120.73312 53.87281 120.74817 L 54.18907 120.74817 L 54.640722 120.79313 L 55.069636 120.92904 C 55.174999 120.94409 55.370696 120.96663 55.656681 120.99673 C 55.942666 121.02684 56.115821 121.04169 56.176029 121.04169 C 56.251288 121.04169 56.394217 121.06423 56.604943 121.10939 C 56.830721 121.15454 56.97365 121.1694 57.033858 121.15434 C 57.109117 121.13929 57.184424 121.16952 57.259684 121.24478 C 57.334943 121.30499 57.402565 121.33521 57.462772 121.33521 C 57.733705 121.29006 58.011878 121.32745 58.297863 121.44787 C 58.463434 121.50807 58.60688 121.56084 58.727294 121.606 C 58.847709 121.6361 58.915331 121.71141 58.930383 121.83182 L 58.95312 122.53204 C 58.968172 122.96854 58.997882 123.32971 59.043037 123.61569 C 59.103245 123.88663 59.103245 124.26265 59.043037 124.74431 L 58.884907 124.90244 L 56.966162 125.0833 C 56.845747 125.0833 56.680277 125.09047 56.469551 125.10552 C 56.273877 125.10552 56.152972 125.11321 56.107816 125.12826 C 56.047609 125.14331 55.987673 125.151 55.927465 125.151 L 55.724377 125.151 L 55.385379 125.151 L 55.249987 125.0833 C 55.249987 125.0532 55.235132 125.03783 55.205029 125.03783 C 55.159873 125.03783 55.129647 125.04551 55.114595 125.06057 C 55.099543 125.07562 55.069317 125.0833 55.024161 125.0833 L 54.821073 125.12826 L 54.662943 125.0833 C 54.617787 125.0833 54.588078 125.07562 54.573026 125.06057 C 54.557974 125.04551 54.527748 125.03783 54.482592 125.03783 L 53.963244 124.97013 L 53.805114 124.90244 L 53.69246 124.90244 C 53.69246 124.93254 53.677088 124.94739 53.646984 124.94739 C 53.541621 124.94739 53.474 124.94023 53.443896 124.92517 C 53.428844 124.91012 53.391449 124.90244 53.331241 124.90244 C 53.210826 124.82718 53.127833 124.70679 53.082678 124.54122 C 53.067626 124.51111 53.05994 124.48089 53.05994 124.45078 C 53.05994 124.40563 53.052771 124.37592 53.037719 124.36087 C 53.022667 124.34582 53.014982 124.33044 53.014982 124.31539 C 53.014982 124.28529 53.007296 124.26275 52.992244 124.2477 L 52.992244 122.10261 C 53.007296 122.0424 53.014982 121.95224 53.014982 121.83182 L 53.014982 121.24478 C 53.014982 121.0491 52.99961 120.91386 52.969506 120.8386 L 52.969506 120.79313 C 52.969506 120.77807 53.037645 120.76322 53.173111 120.74817 C 53.308578 120.73312 53.436136 120.72543 53.556551 120.72543 z M 73.741365 122.577 L 78.527636 122.577 C 78.693207 122.577 78.79874 122.68253 78.843896 122.89326 C 78.858948 122.90831 78.866634 122.93085 78.866634 122.96095 L 78.866634 123.1413 L 78.866634 123.43483 C 78.866634 123.51008 78.889174 123.59308 78.93433 123.68339 C 78.994537 123.7737 79.054473 123.94686 79.11468 124.20274 C 79.174888 124.45862 79.205114 124.88741 79.205114 125.48948 C 79.220166 125.88083 79.21248 126.37007 79.182377 126.95709 C 79.152273 127.52906 79.100023 128.22885 79.024763 129.0567 L 78.979288 129.55332 C 78.964236 129.62857 78.957067 129.75665 78.957067 129.93727 L 78.957067 130.88553 C 79.032327 130.79522 79.122489 130.68252 79.227852 130.54705 C 79.348267 130.39653 79.476341 130.24592 79.611808 130.0954 C 79.641911 130.0954 79.799695 129.9827 80.085681 129.75692 C 80.371666 129.51609 80.702605 129.22972 81.078902 128.89857 C 81.726131 128.3266 82.253284 127.86042 82.659684 127.49918 C 83.066084 127.12288 83.457476 126.77657 83.833772 126.46048 C 83.939135 126.40027 84.051838 126.39259 84.172253 126.43774 C 84.292668 126.46785 84.413056 126.5283 84.533471 126.61861 C 84.68399 126.72397 84.81975 126.84436 84.940165 126.97983 C 85.060579 127.10024 85.150742 127.19809 85.210949 127.27335 C 85.361468 127.42387 85.443944 127.53657 85.458996 127.61183 C 85.4891 127.67204 85.512157 127.72481 85.527209 127.76996 C 85.542261 127.81512 85.609882 127.87505 85.730297 127.95031 C 85.895868 128.10083 86.016256 128.19868 86.091516 128.24383 C 86.166775 128.27394 86.271792 128.39433 86.407259 128.60505 C 86.527673 128.74052 86.640893 128.85374 86.746256 128.94405 C 86.851619 129.03436 86.934095 129.15475 86.994303 129.30527 L 86.994303 129.32749 C 86.994303 129.40275 86.934367 129.52365 86.813952 129.68922 C 86.708589 129.83974 86.505207 130.04261 86.20417 130.29849 L 84.307645 132.01466 L 84.307645 132.05962 C 84.322697 132.05962 84.315528 132.08216 84.285424 132.12732 L 83.969164 132.35314 C 83.939061 132.38325 83.878608 132.42064 83.788297 132.4658 C 83.697986 132.51095 83.652905 132.59395 83.652905 132.71436 C 83.743216 132.81973 83.833378 132.94011 83.923689 133.07558 C 84.014 133.196 84.119534 133.29384 84.239949 133.3691 C 84.345312 133.41426 84.450846 133.52696 84.556209 133.70758 L 84.917427 134.24967 C 85.052894 134.43029 85.195823 134.55837 85.346341 134.63363 C 85.49686 134.84435 85.707411 135.14506 85.978344 135.53641 C 86.264329 135.92776 86.550705 136.32684 86.83669 136.73324 C 87.137727 137.12459 87.378504 137.44836 87.559126 137.70424 C 87.679541 137.85476 87.739477 137.99 87.739477 138.11042 C 87.739477 138.26093 87.694396 138.38132 87.604085 138.47163 C 87.48367 138.577 87.393508 138.66768 87.3333 138.74294 C 87.273093 138.81819 87.197785 138.87813 87.107474 138.92329 C 86.9118 138.93834 86.761185 139.00596 86.655822 139.12637 C 86.565511 139.24679 86.437437 139.34464 86.271866 139.4199 C 86.211659 139.43495 86.084101 139.50257 85.888427 139.62298 C 85.692753 139.7434 85.504226 139.85662 85.323604 139.96198 C 85.158033 140.05229 85.082726 140.07483 85.097778 140.02968 L 84.691601 140.36816 C 84.571186 140.44342 84.481024 140.51104 84.420817 140.57125 C 84.375661 140.64651 84.247587 140.72181 84.036861 140.79707 C 83.780979 140.99275 83.517661 140.95535 83.246728 140.68442 C 83.231676 140.65432 83.164054 140.56415 83.04364 140.41363 C 82.938277 140.26312 82.825057 140.1125 82.704642 139.96198 C 82.599279 139.79641 82.523972 139.70625 82.478816 139.6912 L 82.230769 139.46537 L 82.117598 139.30724 L 80.356465 137.07172 C 80.31131 136.98141 80.259059 136.9061 80.198852 136.84589 C 80.153696 136.77063 80.108099 136.71838 80.062943 136.68828 L 79.950288 136.57511 L 79.475899 135.80771 C 79.415691 135.76256 79.37061 135.74002 79.340506 135.74002 L 78.708504 136.37202 L 78.640808 138.08768 L 78.640808 138.74294 C 78.640808 138.89345 78.633122 138.96824 78.61807 138.96824 L 78.61807 139.03594 L 78.573111 139.17185 L 78.573111 139.48759 L 78.573111 140.05242 C 78.573111 140.20293 78.535199 140.28541 78.45994 140.30046 C 78.414784 140.34562 78.332308 140.36099 78.211893 140.34594 C 78.061375 140.36099 77.888219 140.36816 77.692545 140.36816 L 76.879675 140.36816 L 74.441064 140.36816 C 74.24539 140.36816 74.140373 140.36099 74.125321 140.34594 L 74.01215 140.34594 L 73.199279 140.2555 L 73.131583 140.07464 L 73.131583 138.6525 C 73.116531 138.54714 73.101676 138.41138 73.086625 138.24581 L 73.086625 137.79467 L 73.041666 136.03354 L 72.996191 135.3111 C 72.996191 135.05522 72.981336 134.81393 72.951232 134.58815 L 72.951232 134.09154 C 72.951232 133.88081 72.943547 133.70049 72.928495 133.54997 C 72.913443 133.3844 72.905757 133.24864 72.905757 133.14328 L 72.905757 132.96293 C 72.935861 132.90272 72.951232 132.81973 72.951232 132.71436 L 72.951232 132.05962 L 72.951232 131.65345 L 72.951232 131.49532 C 72.951232 131.46521 72.943547 131.44267 72.928495 131.42762 C 72.913443 131.41257 72.905757 131.37466 72.905757 131.31445 C 72.905757 131.19403 72.913443 131.11156 72.928495 131.0664 C 72.943547 131.0363 72.951232 130.89337 72.951232 130.63749 L 72.951232 129.37296 L 72.951232 126.93435 L 72.951232 123.72835 C 72.936181 123.65309 72.920809 123.58547 72.905757 123.52526 L 72.905757 123.34439 L 72.905757 123.1413 C 72.860602 122.87037 72.996362 122.69721 73.312451 122.62196 C 73.493073 122.59185 73.636002 122.577 73.741365 122.577 z M 45.699666 123.209 L 48.341365 123.23174 C 48.416624 123.24679 48.514472 123.25447 48.634887 123.25447 L 49.312365 123.25447 L 50.39602 123.25447 C 50.426124 123.26953 50.478891 123.2767 50.55415 123.2767 C 50.629409 123.2767 50.719571 123.28438 50.824934 123.29943 C 51.171127 123.31449 51.389364 123.44973 51.479675 123.70561 C 51.509778 123.84108 51.524633 123.9543 51.524633 124.04461 L 51.524633 124.27043 L 51.502412 124.45078 L 51.502412 124.72209 C 51.457257 124.82745 51.411659 124.94015 51.366503 125.06057 C 51.321348 125.16593 51.306493 125.27863 51.321545 125.39905 L 51.321545 125.73804 C 51.336597 125.7531 51.344282 125.78281 51.344282 125.82796 L 51.344282 126.05379 L 51.366503 126.23465 L 51.366503 126.754 L 51.389241 131.54027 C 51.404293 131.58543 51.411979 131.64588 51.411979 131.72114 L 51.411979 132.17279 C 51.442082 132.38352 51.479478 132.52645 51.524633 132.60171 C 51.524633 132.78233 51.517464 132.89503 51.502412 132.94019 C 51.487361 132.98534 51.479675 133.10573 51.479675 133.30141 C 51.464623 133.39172 51.464623 133.51211 51.479675 133.66263 C 51.509778 133.79809 51.502093 133.94871 51.456937 134.11428 C 51.381678 134.43037 51.344282 134.686 51.344282 134.88167 C 51.344282 135.07735 51.389364 135.32581 51.479675 135.62685 C 51.479675 136.62027 51.441763 137.48605 51.366503 138.22359 C 51.306296 138.94608 51.276586 139.7058 51.276586 140.50355 L 50.960327 140.48133 L 50.666804 140.43586 L 50.305586 140.43586 C 50.200223 140.4208 50.049608 140.40595 49.853934 140.3909 C 49.65826 140.37584 49.417483 140.36099 49.131498 140.34594 C 48.950875 140.34594 48.838173 140.33825 48.793017 140.3232 C 48.73281 140.30815 48.680043 140.30046 48.634887 140.30046 L 48.499495 140.30046 L 48.002368 140.30046 L 47.777058 140.27773 C 47.355607 140.29278 47.031836 140.30046 46.806058 140.30046 C 46.595332 140.31551 46.429863 140.3232 46.309448 140.3232 C 46.189033 140.33825 46.046104 140.34594 45.880533 140.34594 L 45.428881 140.34594 L 45.022188 140.36816 L 44.954492 140.27773 L 44.954492 136.95906 C 44.954492 136.83865 44.947323 136.71058 44.932271 136.57511 C 44.932271 136.42459 44.924585 136.28935 44.909533 136.16893 L 44.909533 135.62685 L 44.999967 134.65585 C 45.030071 134.27955 45.052611 133.8733 45.067663 133.4368 C 45.097767 132.98524 45.097767 132.52623 45.067663 132.05962 C 45.007456 130.43402 44.969543 129.09438 44.954492 128.04075 C 44.93944 126.98712 44.947126 126.1444 44.977229 125.51222 C 45.022385 124.88004 45.090007 124.3908 45.180318 124.04461 C 45.300732 123.59305 45.473888 123.31436 45.699666 123.209 z M 99.615755 123.84152 C 100.06731 123.82647 100.29272 124.15741 100.29272 124.83474 C 100.29272 125.27124 100.27786 125.70003 100.24776 126.12148 C 100.21765 126.52788 100.18743 126.90442 100.15732 127.25061 L 100.94746 127.25061 L 101.19602 127.25061 C 101.28633 127.25061 101.36164 127.2583 101.42185 127.27335 L 101.96341 127.29557 L 102.03111 127.34105 C 102.06121 127.3561 102.07659 127.37864 102.07659 127.40874 L 102.07659 131.08862 C 102.07659 131.19398 102.00896 131.29952 101.8735 131.40488 C 101.75308 131.49519 101.60247 131.55565 101.42185 131.58575 C 101.18102 131.52554 101.03809 131.48763 100.99293 131.47258 C 100.94778 131.44247 100.88732 131.42762 100.81206 131.42762 L 100.04467 131.42762 L 100.04467 132.15006 L 100.04467 134.00111 C 100.04467 134.3473 100.05184 134.53583 100.06689 134.56593 L 100.06689 135.19793 L 100.08963 135.19793 C 100.14983 135.84516 100.28508 136.25141 100.4958 136.41698 C 100.72158 136.5675 101.16574 136.59004 101.82802 136.48468 C 102.03875 136.55993 102.14428 136.85348 102.14428 137.36524 L 102.14428 137.63654 L 102.14428 138.20085 C 102.15933 138.47178 102.17419 138.91594 102.18924 139.53307 C 102.15914 139.62338 102.15197 139.75862 102.16702 139.93924 L 102.14428 140.27773 C 102.08408 140.27773 102.03899 140.2931 102.00889 140.3232 L 101.89572 140.45859 C 101.86562 140.4887 101.84307 140.50355 101.82802 140.50355 C 101.76782 140.50355 101.68534 140.51124 101.57998 140.52629 C 101.47461 140.55639 101.33885 140.58662 101.17328 140.61672 L 100.81206 140.63946 C 100.25515 140.66956 99.773591 140.6921 99.367191 140.70716 C 98.975843 140.73726 98.599305 140.72189 98.238061 140.66168 C 97.891868 140.61653 97.515848 140.51151 97.109448 140.34594 C 96.161181 139.93954 95.468559 139.38216 95.032055 138.67472 C 94.610603 137.96729 94.385198 136.99649 94.355094 135.76224 L 94.377315 135.76224 C 94.392367 135.23542 94.400052 134.69393 94.400052 134.13701 C 94.415104 133.56504 94.429959 133.04558 94.445011 132.57897 C 94.460063 132.09731 94.467748 131.75869 94.467748 131.56301 L 93.700353 131.56301 C 93.474576 131.56301 93.323961 131.43494 93.248701 131.17906 C 93.188494 130.90812 93.158268 130.56181 93.158268 130.14036 C 93.17332 129.71891 93.181005 129.27527 93.181005 128.80866 L 93.181005 128.51514 C 93.211109 128.39472 93.225964 128.29687 93.225964 128.22161 L 93.225964 128.01801 L 93.225964 127.56687 L 93.248701 127.38601 L 93.338618 127.29557 L 93.519486 127.31831 L 94.129268 127.31831 L 94.26466 127.31831 C 94.174349 127.30326 94.106727 127.29557 94.061572 127.29557 L 94.445011 127.29557 L 94.512707 124.58618 C 94.542811 124.51092 94.542811 124.42075 94.512707 124.31539 C 94.482603 124.21003 94.490289 124.11987 94.535445 124.04461 C 94.595652 123.9543 94.753953 123.90922 95.009834 123.90922 L 97.628796 123.90922 C 97.734159 123.92427 97.854547 123.93144 97.990014 123.93144 L 98.463887 123.93144 L 99.02871 123.93144 C 99.10397 123.90133 99.15622 123.88648 99.186323 123.88648 L 99.322233 123.88648 C 99.38244 123.87143 99.43469 123.86374 99.479846 123.86374 C 99.525001 123.84869 99.570599 123.84152 99.615755 123.84152 z M 142.1744 123.84152 C 142.62595 123.82647 142.85188 124.15741 142.85188 124.83474 C 142.85188 125.27124 142.83702 125.70003 142.80692 126.12148 C 142.77681 126.52788 142.74659 126.90442 142.71648 127.25061 L 143.50662 127.25061 L 143.75518 127.25061 C 143.84549 127.25061 143.9208 127.2583 143.98101 127.27335 L 144.52257 127.29557 L 144.59027 127.34105 C 144.62037 127.3561 144.63575 127.37864 144.63575 127.40874 L 144.63575 131.08862 C 144.63575 131.19398 144.56761 131.29952 144.43214 131.40488 C 144.31173 131.49519 144.16163 131.55565 143.98101 131.58575 C 143.74018 131.52554 143.59725 131.48763 143.55209 131.47258 C 143.50694 131.44247 143.44648 131.42762 143.37122 131.42762 L 142.60383 131.42762 L 142.60383 132.15006 L 142.60383 134.00111 C 142.60383 134.3473 142.611 134.53583 142.62605 134.56593 L 142.62605 135.19793 L 142.64879 135.19793 C 142.70899 135.84516 142.84424 136.25141 143.05496 136.41698 C 143.28074 136.5675 143.7249 136.59004 144.38718 136.48468 C 144.59791 136.55993 144.70344 136.85348 144.70344 137.36524 L 144.70344 137.63654 L 144.70344 138.20085 C 144.71849 138.47178 144.73335 138.91594 144.7484 139.53307 C 144.7183 139.62338 144.71061 139.75862 144.72566 139.93924 L 144.70344 140.27773 C 144.64323 140.27773 144.59815 140.2931 144.56805 140.3232 L 144.45488 140.45859 C 144.42477 140.4887 144.40223 140.50355 144.38718 140.50355 C 144.32697 140.50355 144.2445 140.51124 144.13914 140.52629 C 144.03377 140.55639 143.89801 140.58662 143.73244 140.61672 L 143.37122 140.63946 C 142.8143 140.66956 142.33275 140.6921 141.92635 140.70716 C 141.535 140.73726 141.15846 140.72189 140.79722 140.66168 C 140.45103 140.61653 140.07501 140.51151 139.66861 140.34594 C 138.72034 139.93954 138.02772 139.38216 137.59121 138.67472 C 137.16976 137.96729 136.94384 136.99649 136.91374 135.76224 L 136.93647 135.76224 C 136.95153 135.23542 136.95921 134.69393 136.95921 134.13701 C 136.97426 133.56504 136.98912 133.04558 137.00417 132.57897 C 137.01922 132.09731 137.02691 131.75869 137.02691 131.56301 L 136.259 131.56301 C 136.03322 131.56301 135.88312 131.43494 135.80786 131.17906 C 135.74765 130.90812 135.71743 130.56181 135.71743 130.14036 C 135.73248 129.71891 135.74016 129.27527 135.74016 128.80866 L 135.74016 128.51514 C 135.77027 128.39472 135.78512 128.29687 135.78512 128.22161 L 135.78512 128.01801 L 135.78512 127.56687 L 135.80786 127.38601 L 135.89778 127.29557 L 136.07865 127.31831 L 136.68843 127.31831 L 136.82382 127.31831 C 136.73351 127.30326 136.66537 127.29557 136.62021 127.29557 L 137.00417 127.29557 L 137.07187 124.58618 C 137.10197 124.51092 137.10197 124.42075 137.07187 124.31539 C 137.04176 124.21003 137.04945 124.11987 137.0946 124.04461 C 137.15481 123.9543 137.31311 123.90922 137.56899 123.90922 L 140.18796 123.90922 C 140.29332 123.92427 140.41371 123.93144 140.54917 123.93144 L 141.02305 123.93144 L 141.58735 123.93144 C 141.66261 123.90133 141.71538 123.88648 141.74548 123.88648 L 141.88088 123.88648 C 141.94108 123.87143 141.99385 123.86374 142.039 123.86374 C 142.08416 123.84869 142.12924 123.84152 142.1744 123.84152 z M 177.53141 123.84152 C 177.98297 123.82647 178.20889 124.15741 178.20889 124.83474 C 178.20889 125.27124 178.19352 125.70003 178.16341 126.12148 C 178.13331 126.52788 178.1036 126.90442 178.0735 127.25061 L 178.86363 127.25061 L 179.11168 127.25061 C 179.20199 127.25061 179.2773 127.2583 179.3375 127.27335 L 179.87959 127.29557 L 179.94729 127.34105 C 179.97739 127.3561 179.99224 127.37864 179.99224 127.40874 L 179.99224 131.08862 C 179.99224 131.19398 179.92462 131.29952 179.78916 131.40488 C 179.66874 131.49519 179.51813 131.55565 179.3375 131.58575 C 179.09667 131.52554 178.95374 131.48763 178.90859 131.47258 C 178.86343 131.44247 178.8035 131.42762 178.72824 131.42762 L 177.96033 131.42762 L 177.96033 132.15006 L 177.96033 134.00111 C 177.96033 134.3473 177.96801 134.53583 177.98306 134.56593 L 177.98306 135.19793 L 178.0058 135.19793 C 178.06601 135.84516 178.20125 136.25141 178.41198 136.41698 C 178.63776 136.5675 179.08192 136.59004 179.7442 136.48468 C 179.95492 136.55993 180.05994 136.85348 180.05994 137.36524 L 180.05994 137.63654 L 180.05994 138.20085 C 180.07499 138.47178 180.09036 138.91594 180.10542 139.53307 C 180.07531 139.62338 180.06763 139.75862 180.08268 139.93924 L 180.05994 140.27773 C 179.99973 140.27773 179.95465 140.2931 179.92455 140.3232 L 179.81189 140.45859 C 179.78179 140.4887 179.75925 140.50355 179.7442 140.50355 C 179.68399 140.50355 179.601 140.51124 179.49563 140.52629 C 179.39027 140.55639 179.25503 140.58662 179.08946 140.61672 L 178.72824 140.63946 C 178.17132 140.66956 177.68925 140.6921 177.28285 140.70716 C 176.8915 140.73726 176.51548 140.72189 176.15424 140.66168 C 175.80804 140.61653 175.43151 140.51151 175.02511 140.34594 C 174.07684 139.93954 173.38473 139.38216 172.94823 138.67472 C 172.52678 137.96729 172.30086 136.99649 172.27075 135.76224 L 172.29349 135.76224 C 172.30854 135.23542 172.31623 134.69393 172.31623 134.13701 C 172.33128 133.56504 172.34613 133.04558 172.36119 132.57897 C 172.37624 132.09731 172.38392 131.75869 172.38392 131.56301 L 171.61601 131.56301 C 171.39023 131.56301 171.23962 131.43494 171.16436 131.17906 C 171.10415 130.90812 171.07444 130.56181 171.07444 130.14036 C 171.08949 129.71891 171.09666 129.27527 171.09666 128.80866 L 171.09666 128.51514 C 171.12677 128.39472 171.14214 128.29687 171.14214 128.22161 L 171.14214 128.01801 L 171.14214 127.56687 L 171.16436 127.38601 L 171.25479 127.29557 L 171.43566 127.31831 L 172.04493 127.31831 L 172.18032 127.31831 C 172.09001 127.30326 172.02238 127.29557 171.97723 127.29557 L 172.36119 127.29557 L 172.42888 124.58618 C 172.45898 124.51092 172.45898 124.42075 172.42888 124.31539 C 172.39878 124.21003 172.40646 124.11987 172.45162 124.04461 C 172.51183 123.9543 172.66961 123.90922 172.92549 123.90922 L 175.54445 123.90922 C 175.64982 123.92427 175.7702 123.93144 175.90567 123.93144 L 176.38006 123.93144 L 176.94437 123.93144 C 177.01963 123.90133 177.07239 123.88648 177.1025 123.88648 L 177.23789 123.88648 C 177.2981 123.87143 177.35086 123.86374 177.39602 123.86374 C 177.44118 123.84869 177.48626 123.84152 177.53141 123.84152 z M 38.587438 124.49626 C 38.828268 124.49626 39.03165 124.51111 39.19722 124.54122 C 39.362791 124.55627 39.558487 124.57881 39.784265 124.60891 C 40.025094 124.63902 40.36372 124.6841 40.800223 124.74431 C 40.890534 124.74431 40.980697 124.75968 41.071008 124.78978 C 41.161319 124.80483 41.259167 124.81969 41.36453 124.83474 L 42.109704 124.94739 C 42.230119 124.96245 42.373048 124.99267 42.538618 125.03783 C 42.704189 125.08298 42.839949 125.10552 42.945312 125.10552 C 42.960364 125.10552 42.975219 125.11321 42.99027 125.12826 C 43.005322 125.12826 43.027863 125.13595 43.057967 125.151 C 43.073018 125.16605 43.08839 125.18859 43.103442 125.2187 C 43.118494 125.2488 43.133348 125.27134 43.1484 125.28639 C 43.253763 125.3466 43.313699 125.37683 43.328751 125.37683 L 43.396964 125.37683 L 43.441922 125.82796 C 43.456974 125.94838 43.46466 126.06876 43.46466 126.18918 C 43.46466 126.30959 43.471829 126.4305 43.486881 126.55091 C 43.501933 126.70143 43.509619 126.9043 43.509619 127.16018 C 43.52467 127.41606 43.532356 127.69475 43.532356 127.99579 C 43.532356 128.40219 43.494444 128.71059 43.419185 128.92131 C 43.358977 129.11699 43.246275 129.27529 43.080704 129.3957 L 41.184179 129.1244 L 40.867919 129.1244 L 40.574397 129.1244 C 40.544294 129.10935 40.506898 129.10218 40.461743 129.10218 C 40.416587 129.08713 40.303367 129.08713 40.122745 129.10218 L 40.100524 129.1244 C 38.956584 129.1244 38.045725 129.44817 37.368391 130.0954 C 36.70611 130.74263 36.37517 131.61558 36.37517 132.71436 C 36.37517 133.76799 36.691255 134.58817 37.323433 135.17519 C 37.970663 135.76222 38.798528 135.99582 39.807002 135.87541 L 40.777486 135.76224 C 41.063471 135.73213 41.364701 135.67988 41.68079 135.60463 C 42.01193 135.52937 42.463775 135.32598 43.035746 134.99484 C 43.23142 135.05505 43.328751 135.18313 43.328751 135.3788 L 43.328751 135.4465 C 43.705047 136.48507 43.893574 137.65156 43.893574 138.94602 C 43.2915 139.5782 42.493861 140.03722 41.500439 140.3232 C 40.522069 140.60919 39.242358 140.75211 37.661914 140.75211 C 35.072995 140.75211 32.95825 140.06718 31.317598 138.69746 C 29.586635 137.25248 28.721374 135.24327 28.721374 132.6694 C 28.721374 131.22443 28.924239 130.01285 29.330639 129.03448 C 29.752091 128.04106 30.414487 127.19782 31.317598 126.50544 C 31.844413 126.09904 32.491437 125.74556 33.259081 125.44452 C 34.041778 125.14349 34.892184 124.90988 35.810347 124.74431 C 36.72851 124.57874 37.654224 124.49626 38.587438 124.49626 z M 58.230167 126.754 C 58.922552 126.754 59.268863 126.87439 59.268863 127.11522 L 59.268863 130.59201 C 59.268863 131.10377 59.261178 131.67601 59.246126 132.30819 C 59.231074 132.94036 59.216219 133.53462 59.201167 134.09154 C 59.186115 134.64846 59.163575 135.08493 59.133471 135.40102 L 59.065775 136.32706 C 59.035671 136.83882 59.013131 137.28247 58.998079 137.65876 C 58.983027 138.03506 58.968172 138.34398 58.95312 138.58481 C 58.938069 138.59986 58.930383 138.63725 58.930383 138.69746 L 58.930383 139.08142 C 58.930383 139.48782 58.877616 139.81876 58.772253 140.07464 C 58.66689 140.31547 58.523961 140.43586 58.343338 140.43586 L 57.82399 140.52629 L 57.281905 140.45859 L 56.243725 140.34594 L 55.927465 140.36816 L 55.137333 140.36816 C 55.122281 140.30795 55.0772 140.27773 55.00194 140.27773 L 54.685681 140.30046 L 54.369421 140.34594 C 54.27911 140.36099 54.211488 140.36816 54.166332 140.36816 C 54.136229 140.33806 54.083462 140.31551 54.008203 140.30046 L 53.895548 140.30046 C 53.895548 140.28541 53.880176 140.27773 53.850073 140.27773 L 53.782377 140.30046 L 53.760156 140.3232 C 53.54943 140.3232 53.406501 140.26275 53.331241 140.14233 C 53.271034 140.03697 53.225436 139.89404 53.195332 139.71342 C 53.165229 139.51774 53.150374 139.23189 53.150374 138.85559 C 53.165426 138.75023 53.165426 138.62984 53.150374 138.49437 C 53.150374 138.3589 53.135519 138.14067 53.105415 137.83963 L 53.037719 136.91411 L 53.037719 130.52432 C 53.037719 130.26843 53.030033 130.01997 53.014982 129.77914 C 53.014982 129.53831 52.99961 129.24477 52.969506 128.89857 C 52.954454 128.76311 52.931914 128.64272 52.90181 128.53736 C 52.886758 128.5223 52.879589 128.46954 52.879589 128.37923 C 52.909693 127.77715 53.037251 127.37859 53.263028 127.18292 C 53.503858 126.97219 53.955703 126.86666 54.617984 126.86666 L 54.753377 126.8217 C 54.798532 126.80665 54.851299 126.79896 54.911507 126.79896 L 54.934244 126.79896 C 54.949296 126.79896 54.964151 126.80665 54.979203 126.8217 C 55.114669 126.8217 55.197663 126.83655 55.227766 126.86666 L 55.317683 126.86666 C 55.377891 126.86666 55.430658 126.84412 55.475813 126.79896 L 57.16925 126.8217 L 57.372338 126.8217 C 57.447598 126.80665 57.53776 126.79128 57.643123 126.77622 C 57.733434 126.76117 57.92913 126.754 58.230167 126.754 z M 67.329353 126.8217 C 67.525027 126.8217 67.690497 126.82938 67.825964 126.84444 C 67.96143 126.85949 68.1269 126.88203 68.322574 126.91213 C 68.518248 126.94224 68.796938 126.98732 69.158182 127.04753 C 69.21839 127.04753 69.286011 127.05469 69.361271 127.06975 L 69.632055 127.06975 L 70.174141 127.20565 C 70.445074 127.28091 70.678166 127.31831 70.87384 127.31831 C 70.918995 127.31831 70.949222 127.34085 70.964274 127.38601 C 70.994377 127.40106 71.009232 127.4236 71.009232 127.4537 L 71.054707 127.49918 C 71.099863 127.55938 71.144944 127.58909 71.1901 127.58909 L 71.235058 127.58909 L 71.280533 127.97305 L 71.280533 128.17614 C 71.295585 128.26645 71.31044 128.39452 71.325492 128.56009 C 71.340544 128.83103 71.348229 129.06412 71.348229 129.25979 C 71.363281 129.44042 71.37045 129.61357 71.37045 129.77914 C 71.37045 130.15544 71.340741 130.42644 71.280533 130.59201 C 71.235378 130.75758 71.129844 130.88566 70.964274 130.97597 L 69.451704 130.77288 L 69.203141 130.77288 L 68.955094 130.77288 C 68.92499 130.75783 68.887078 130.75014 68.841922 130.75014 C 68.811819 130.73509 68.713971 130.73509 68.5484 130.75014 L 68.525663 130.77288 C 68.059055 130.77288 67.667663 131.04388 67.351574 131.58575 C 67.050537 132.11256 66.900439 132.79698 66.900439 133.63989 C 66.900439 134.72362 67.020828 135.50641 67.261657 135.98806 C 67.517539 136.45467 67.954012 136.73336 68.571138 136.82367 L 69.316312 136.73324 C 69.557142 136.70314 69.805088 136.61297 70.060969 136.46245 C 70.331903 136.31194 70.700754 136.15363 71.167362 135.98806 C 71.332932 136.09343 71.415926 136.20665 71.415926 136.32706 L 71.415926 136.37202 C 71.716963 137.10956 71.874747 138.08804 71.889798 139.30724 C 71.468347 139.77385 70.881258 140.13502 70.128666 140.3909 C 69.376073 140.66183 68.555893 140.79707 67.667834 140.79707 C 65.60573 140.79707 63.897232 140.23304 62.542565 139.10415 C 61.955543 138.62249 61.48936 137.9601 61.143168 137.11719 C 60.812027 136.27429 60.563564 135.18311 60.397993 133.84349 C 60.397993 132.7146 60.578318 131.69104 60.939562 130.77288 C 61.315859 129.85472 61.85018 129.11701 62.542565 128.56009 C 63.295158 127.94297 64.040547 127.49881 64.778088 127.22788 C 65.515629 126.95694 66.366035 126.8217 67.329353 126.8217 z M 108.44364 126.84444 C 108.83499 126.84444 109.26378 126.85161 109.73038 126.86666 C 110.19699 126.88171 110.66369 126.8894 111.1303 126.8894 L 111.22073 126.8894 C 111.25083 126.8894 111.26569 126.89708 111.26569 126.91213 C 111.34095 126.89708 111.45365 126.8894 111.60417 126.8894 C 111.75469 126.8894 111.9053 126.89708 112.05582 126.91213 C 113.21481 127.00244 114.20098 127.40101 115.01378 128.10844 C 115.5406 128.57505 115.99192 129.1396 116.36822 129.80188 C 116.74452 130.46416 117.03038 131.18649 117.22605 131.96919 C 117.42172 132.75188 117.50472 133.54235 117.47461 134.3401 C 117.45956 134.92713 117.3694 135.4763 117.20383 135.98806 C 117.05331 136.49983 116.89501 137.01929 116.72944 137.54611 C 116.57892 138.04282 116.33046 138.50952 115.98426 138.94602 C 115.63807 139.38253 115.24668 139.74369 114.81018 140.02968 L 114.31357 140.34594 C 114.29851 140.36099 114.29083 140.3533 114.29083 140.3232 C 114.29083 140.30815 114.25343 140.33837 114.17817 140.41363 C 114.14807 140.44374 114.11067 140.45859 114.06552 140.45859 C 114.00531 140.50375 113.86955 140.52629 113.65883 140.52629 L 113.52343 140.52629 C 113.17724 140.63165 112.82376 140.74435 112.46252 140.86477 C 112.10127 141.00024 111.79236 141.00792 111.53647 140.88751 C 111.44616 140.84235 111.356 140.8275 111.26569 140.84255 C 111.19043 140.87265 111.13766 140.88751 111.10756 140.88751 L 110.63369 140.88751 C 110.07677 140.88751 109.50453 140.85011 108.91751 140.77485 C 108.33049 140.71465 107.78131 140.63165 107.26955 140.52629 C 106.8481 140.42093 106.48642 140.29285 106.18538 140.14233 C 105.88434 139.99181 105.60617 139.78126 105.35029 139.51033 C 105.10946 139.2394 104.84614 138.88592 104.56016 138.44941 L 104.31159 138.44941 L 104.28885 138.08768 L 104.2439 138.08768 C 104.2439 138.07263 104.22904 138.06546 104.19894 138.06546 L 104.01807 137.65876 C 103.37084 136.42451 103.0773 135.10024 103.1375 133.68536 C 103.21276 132.22533 103.51399 131.01376 104.04081 130.05044 C 104.58267 129.07207 105.44077 128.19144 106.61481 127.40874 C 106.94595 127.21307 107.26204 127.08499 107.56307 127.02479 C 107.86411 126.96458 108.15765 126.90464 108.44364 126.84444 z M 133.64003 126.84444 C 133.7454 126.87454 133.83608 126.90425 133.91134 126.93435 C 133.98659 126.96446 134.05422 126.97983 134.11442 126.97983 C 134.37031 126.99488 134.51323 127.0625 134.54334 127.18292 C 134.57344 127.30333 134.61852 127.4688 134.67873 127.67953 C 134.70883 127.79994 134.73138 128.03303 134.74643 128.37923 C 134.76148 128.72542 134.78402 129.18495 134.81412 129.75692 C 134.85928 129.77197 134.88182 129.80168 134.88182 129.84684 C 134.88182 129.93715 134.72404 130.04268 134.40795 130.1631 C 134.30258 130.17815 134.18936 130.20069 134.06895 130.23079 C 133.94853 130.24585 133.83583 130.25353 133.73047 130.25353 L 133.27882 130.32123 C 132.94768 130.36638 132.63159 130.38892 132.33055 130.38892 C 132.02952 130.38892 131.75134 130.517 131.49546 130.77288 C 131.32989 130.9535 131.2469 131.13383 131.2469 131.31445 C 131.2469 131.48002 131.33706 131.60041 131.51768 131.67567 C 131.60799 131.73587 131.74375 131.81118 131.92438 131.90149 C 132.105 131.97675 132.33809 132.08229 132.62408 132.21775 C 133.87338 132.78972 134.75401 133.70775 135.26577 134.97211 C 135.32598 135.12262 135.37106 135.28809 135.40117 135.46872 C 135.43127 135.64934 135.44664 135.84503 135.44664 136.05576 C 135.44664 136.46216 135.39388 136.82333 135.28851 137.13942 C 135.04768 137.92211 134.3776 138.69773 133.27882 139.46537 C 132.33055 140.12765 131.33721 140.47345 130.29864 140.50355 L 127.20529 140.54903 L 126.88954 140.50355 L 126.46063 140.36816 C 126.2499 140.33806 126.04652 140.29297 125.85085 140.23277 C 125.65517 140.17256 125.47433 140.13516 125.30876 140.12011 L 125.08345 140.02968 C 125.00819 139.99957 124.94005 139.98472 124.87985 139.98472 C 124.84974 139.95462 124.80466 139.92439 124.74445 139.89429 L 124.65402 139.80385 L 124.20288 137.09446 L 124.20288 136.91411 C 124.20288 136.73348 124.24797 136.6428 124.33828 136.6428 C 124.80488 136.79332 125.19628 136.9214 125.51237 137.02676 C 125.82845 137.11707 126.19731 137.16215 126.61876 137.16215 L 127.09263 137.16215 C 127.16789 137.16215 127.22066 137.16984 127.25076 137.18489 C 127.50664 137.18489 127.73256 137.15466 127.92824 137.09446 C 128.12391 137.03425 128.27401 136.98148 128.37937 136.93633 C 128.49979 136.89117 128.56024 136.79332 128.56024 136.6428 C 128.56024 136.40198 128.50747 136.21396 128.40211 136.0785 C 128.29675 135.94303 128.0862 135.79242 127.77011 135.62685 L 127.13759 135.35606 C 127.04728 135.35606 127.01757 135.32584 127.04767 135.26563 C 127.09283 135.19037 127.03237 135.12275 126.8668 135.06254 C 126.8668 135.04749 126.85912 135.03263 126.84407 135.01758 L 126.82185 134.99484 C 126.77669 134.97979 126.72392 134.95725 126.66372 134.92715 C 126.61856 134.88199 126.55094 134.84408 126.46063 134.81398 L 126.32524 134.76902 C 126.37039 134.76902 126.39293 134.76133 126.39293 134.74628 C 126.39293 134.70112 126.37039 134.67858 126.32524 134.67858 C 126.31018 134.67858 126.27996 134.65604 126.2348 134.61089 C 126.2047 134.56573 126.15193 134.53551 126.07667 134.52045 C 126.00141 134.4753 125.94096 134.43022 125.8958 134.38506 C 125.85065 134.32485 125.80557 134.28746 125.76041 134.27241 C 125.65505 134.1821 125.60228 134.0991 125.60228 134.02384 L 125.60228 133.86571 C 125.22599 133.86571 124.91759 133.48201 124.67676 132.71436 C 124.58645 132.35312 124.50397 132.04472 124.42871 131.78884 C 124.3685 131.5179 124.33828 131.2843 124.33828 131.08862 C 124.33828 129.94468 124.81215 129.01897 125.76041 128.31153 C 126.70868 127.58904 128.04833 127.15257 129.77929 127.00205 C 130.39641 126.95689 131.04396 126.9195 131.72129 126.8894 C 132.39862 126.85929 133.03796 126.84444 133.64003 126.84444 z M 150.60747 127.00773 C 151.02893 127.00397 151.4467 127.00974 151.86063 127.02479 C 152.68848 127.03984 153.42567 127.08492 154.0729 127.16018 C 154.73518 127.23544 155.21725 127.34097 155.51829 127.47644 C 156.4515 127.85274 157.13592 128.40191 157.57242 129.1244 C 158.00893 129.83184 158.24254 130.81032 158.27264 132.05962 L 158.36307 135.35606 C 158.37813 135.77751 158.39298 136.15353 158.40803 136.48468 C 158.42308 136.80076 158.43077 137.019 158.43077 137.13942 L 158.45299 137.63654 C 158.39278 137.93758 158.3477 138.2009 158.3176 138.42668 C 158.30255 138.6374 158.30255 138.87049 158.3176 139.12637 C 158.3477 139.57793 158.32516 139.89401 158.2499 140.07464 C 158.18969 140.24021 158.06162 140.33089 157.86595 140.34594 L 154.2088 140.45859 C 154.08839 140.42849 153.80201 140.4208 153.35046 140.43586 C 153.18489 140.45091 153.04196 140.43605 152.92154 140.3909 C 152.80113 140.36079 152.68074 140.32288 152.56033 140.27773 C 152.3496 140.18741 152.24407 139.96201 152.24407 139.60076 L 152.24407 139.32946 C 152.24407 139.29936 152.25175 139.27682 152.2668 139.26177 L 152.2668 139.19407 C 152.2367 139.16397 152.21416 139.14911 152.19911 139.14911 C 151.89807 139.61572 151.48414 139.99943 150.95732 140.30046 C 150.44556 140.6015 149.92609 140.76697 149.39928 140.79707 C 147.98441 140.85728 146.92345 140.56374 146.21601 139.91651 C 145.50857 139.25423 145.12487 138.21581 145.06466 136.80093 C 145.04961 136.19886 145.10238 135.71731 145.22279 135.35606 C 145.35826 134.99482 145.63643 134.5732 146.05788 134.09154 C 146.50944 133.54967 147.02122 133.16597 147.59319 132.94019 C 148.16516 132.69936 148.93309 132.57128 149.89641 132.55623 C 150.2727 132.54118 150.59596 132.53401 150.86689 132.53401 C 151.15288 132.51896 151.37111 132.51896 151.52163 132.53401 C 151.95813 132.54906 152.29676 132.54906 152.53759 132.53401 C 152.49243 132.0674 152.34234 131.73595 152.08645 131.54027 C 151.93594 131.41986 151.72487 131.33738 151.45393 131.29223 C 151.183 131.24707 150.79161 131.21685 150.27985 131.20179 L 148.47375 131.20179 C 148.32324 131.20179 148.24076 131.20948 148.22571 131.22453 L 148.0221 131.22453 L 147.84175 131.22453 L 146.50953 131.38214 C 146.29881 131.30688 146.19327 131.01334 146.19327 130.50158 L 146.19327 130.23079 L 146.19327 129.71145 C 146.19327 129.45556 146.17842 129.057 146.14831 128.51514 C 146.17842 128.40977 146.1861 128.27401 146.17105 128.10844 L 146.19327 127.76996 C 146.25348 127.76996 146.29856 127.75459 146.32867 127.72449 L 146.44184 127.58909 C 146.45689 127.55899 146.47943 127.54414 146.50953 127.54414 C 146.56974 127.54414 146.65273 127.53645 146.7581 127.5214 C 146.87851 127.49129 147.01376 127.46107 147.16427 127.43096 L 147.66088 127.34105 C 147.7813 127.31094 147.87198 127.29557 147.93219 127.29557 C 148.35364 127.20526 148.63181 127.14532 148.76728 127.11522 C 148.91779 127.08512 149.10581 127.06258 149.33158 127.04753 C 149.76056 127.02495 150.18602 127.0115 150.60747 127.00773 z M 170.41402 127.32089 C 170.53819 127.31525 170.64513 127.35194 170.73544 127.43096 C 170.85586 127.52128 170.91631 127.66472 170.91631 127.8604 C 170.91631 129.74188 170.87123 131.05847 170.78092 131.81106 C 170.69061 132.5486 170.52462 132.91028 170.28379 132.89523 C 170.01286 132.88018 169.71932 132.84227 169.40323 132.78206 C 169.10219 132.7068 168.74871 132.6694 168.34231 132.6694 C 167.72518 132.6694 167.20572 132.83487 166.78426 133.16601 C 166.37786 133.4821 166.175 133.88118 166.175 134.36284 L 166.175 140.00694 C 166.175 140.0822 166.15963 140.12728 166.12952 140.14233 C 166.11447 140.15738 166.1073 140.1953 166.1073 140.2555 C 166.09225 140.31571 166.05434 140.34594 165.99413 140.34594 C 166.00918 140.34594 165.98664 140.36079 165.92644 140.3909 L 165.81378 140.43586 C 165.22676 140.43586 164.66938 140.4584 164.14257 140.50355 L 163.30747 140.50355 C 162.55488 140.50355 161.96779 140.48101 161.54634 140.43586 C 161.12489 140.3907 160.75604 140.31539 160.43995 140.21003 C 160.34964 140.21003 160.2897 140.17263 160.2596 140.09737 C 160.19939 139.96191 160.16916 139.81129 160.16916 139.64572 L 159.9206 135.82993 C 159.8905 135.40848 159.86796 135.01709 159.8529 134.65585 C 159.83785 134.2946 159.823 133.90373 159.80795 133.48227 L 159.80795 131.94697 L 159.80795 131.29223 L 159.83068 130.34396 L 159.87564 129.21483 L 159.9206 128.37923 L 159.9206 127.90535 C 159.9206 127.83009 159.92829 127.76964 159.94334 127.72449 C 159.94334 127.67933 159.97356 127.65679 160.03377 127.65679 C 160.16924 127.65679 160.30448 127.62708 160.43995 127.56687 L 160.53038 127.56687 C 160.56049 127.56687 160.60557 127.55919 160.66577 127.54414 L 160.77895 127.54414 C 160.83915 127.54414 160.88423 127.55182 160.91434 127.56687 L 164.09761 127.56687 L 164.54926 127.56687 C 164.62452 127.56687 164.69214 127.57404 164.75235 127.58909 L 165.45256 127.61183 C 165.63319 127.62688 165.76074 127.64174 165.836 127.65679 C 165.92631 127.67184 165.99393 127.72461 166.03909 127.81492 L 166.21996 128.44744 L 166.21996 129.93727 C 166.5812 129.3352 167.23591 128.70303 168.18418 128.04075 C 168.57553 127.75476 168.95923 127.58161 169.33553 127.5214 C 169.71183 127.46119 170.02791 127.40125 170.28379 127.34105 C 170.32895 127.32976 170.37262 127.32277 170.41402 127.32089 z M 110.08023 129.79051 C 110.00121 129.79051 109.92206 129.82458 109.84304 129.89231 C 109.67747 130.16325 109.53454 130.51673 109.41412 130.95323 C 109.30876 131.38973 109.25599 131.80367 109.25599 132.19501 L 109.25599 132.87249 L 109.25599 133.66263 C 109.25599 134.05397 109.27136 134.46791 109.30147 134.90441 C 109.33157 135.32586 109.38434 135.67986 109.4596 135.96584 C 109.53486 136.20667 109.57994 136.36446 109.59499 136.43972 C 109.61004 136.51498 109.61721 136.5826 109.61721 136.6428 C 109.61721 137.21478 109.81291 137.65125 110.20426 137.95229 C 110.20426 138.11786 110.33233 138.20085 110.58821 138.20085 C 110.67852 138.20085 110.76868 138.19316 110.859 138.17811 C 110.96436 138.16306 111.02481 138.15589 111.03986 138.15589 L 111.42382 137.32028 L 111.46878 137.18489 C 111.48383 137.12468 111.49152 137.06423 111.49152 137.00402 L 111.64965 136.73324 L 111.64965 136.23663 C 111.7249 136.10116 111.77715 135.9654 111.80726 135.82993 C 111.83736 135.67942 111.88296 135.42378 111.94317 135.06254 L 111.94317 134.67858 L 111.96539 134.27241 L 111.55921 131.20179 C 111.4689 130.4793 111.25835 130.08791 110.92721 130.0277 C 110.76164 129.9976 110.6561 129.96737 110.61095 129.93727 C 110.56579 129.90717 110.49049 129.88463 110.38512 129.86957 C 110.33997 129.85452 110.26466 129.83198 110.1593 129.80188 C 110.13296 129.79435 110.10657 129.79051 110.08023 129.79051 z M 151.54437 134.45276 C 151.25838 134.46781 151.00992 134.59588 150.79919 134.83671 C 150.60352 135.07754 150.52104 135.34855 150.55115 135.64958 L 150.64106 136.50741 C 150.76148 136.95897 150.91978 137.18489 151.11545 137.18489 C 151.79279 137.18489 152.22926 136.82372 152.42493 136.10124 L 152.44767 135.67232 C 152.46272 135.37128 152.37204 135.0926 152.17637 134.83671 C 151.9807 134.56578 151.77015 134.43771 151.54437 134.45276 z " />
    </g>
  </g>
</svg>
